<svg width="349" height="90" viewBox="0 0 349 90" fill="none" xmlns="http://www.w3.org/2000/svg">
<path d="M38.747 53H26.84V38.93H38.747V41.765H29.99V44.516H38.432V47.33H29.99V50.165H38.747V53ZM45.4201 53H42.2701V38.93H45.6301L50.6701 45.587L52.6021 48.548H52.8331L52.6861 45.713V38.93H55.8361V53H52.4761L47.2891 46.28L45.5041 43.634H45.2941L45.4201 46.217V53ZM67.4404 53H64.2904V41.765H59.0614V38.93H72.6694V41.765H67.4404V53ZM87.8058 53H75.8988V38.93H87.8058V41.765H79.0488V44.516H87.4908V47.33H79.0488V50.165H87.8058V53ZM94.4789 53H91.3289V38.93H99.0989C102.564 38.93 104.538 40.463 104.538 43.151C104.538 45.44 103.215 46.805 100.569 47.057V47.225C101.829 47.561 102.312 48.233 102.837 49.22L104.874 53H101.22L99.2879 49.346C98.7209 48.254 98.1959 47.897 96.5579 47.897H94.4789V53ZM94.4789 41.765V45.524H99.0779C100.569 45.524 101.241 45.104 101.241 43.634C101.241 42.248 100.569 41.765 99.0779 41.765H94.4789ZM121.142 53H117.992V41.765H112.763V38.93H126.371V41.765H121.142V53ZM132.751 53H129.601V38.93H132.751V44.516H140.101V38.93H143.251V53H140.101V47.351H132.751V53ZM158.947 53H147.04V38.93H158.947V41.765H150.19V44.516H158.632V47.33H150.19V50.165H158.947V53ZM170.961 53H167.811V38.93H172.074L175.371 45.86L176.694 49.157H176.925L178.206 45.86L181.398 38.93H185.682V53H182.532V45.86L182.637 43.655H182.406L181.587 45.86L178.647 52.16H174.825L171.885 45.86L171.066 43.655H170.835L170.961 45.86V53ZM196.238 53.21C191.66 53.21 189.329 50.9 189.329 47.12V38.93H192.479V46.889C192.479 49.283 193.382 50.144 196.238 50.144C199.115 50.144 199.997 49.283 199.997 46.889V38.93H203.147V47.12C203.147 50.9 200.837 53.21 196.238 53.21ZM218.362 53H206.833V38.93H209.983V50.165H218.362V53ZM229.563 53H226.413V41.765H221.184V38.93H234.792V41.765H229.563V53ZM241.171 53H238.021V38.93H241.171V53ZM254.244 53H249.75L243.912 38.93H247.713L251.934 49.808H252.144L256.302 38.93H260.082L254.244 53ZM274.759 53H262.852V38.93H274.759V41.765H266.002V44.516H274.444V47.33H266.002V50.165H274.759V53ZM281.432 53H278.282V38.93H286.052C289.517 38.93 291.491 40.463 291.491 43.151C291.491 45.44 290.168 46.805 287.522 47.057V47.225C288.782 47.561 289.265 48.233 289.79 49.22L291.827 53H288.173L286.241 49.346C285.674 48.254 285.149 47.897 283.511 47.897H281.432V53ZM281.432 41.765V45.524H286.031C287.522 45.524 288.194 45.104 288.194 43.634C288.194 42.248 287.522 41.765 286.031 41.765H281.432ZM301.306 53.21C297.043 53.21 294.649 51.53 294.649 48.254V48.128H297.799V48.506C297.799 49.808 298.45 50.333 301.306 50.333C303.826 50.333 304.414 49.955 304.414 49.01C304.414 48.149 303.931 47.834 302.482 47.582L298.534 47.015C296.014 46.616 294.523 45.356 294.523 43.067C294.523 40.946 296.245 38.72 300.97 38.72C305.296 38.72 307.312 40.715 307.312 43.676V43.802H304.141V43.508C304.141 42.164 303.448 41.597 300.655 41.597C298.387 41.597 297.694 42.038 297.694 42.941C297.694 43.76 298.156 44.054 299.332 44.264L303.28 44.894C306.43 45.398 307.564 46.931 307.564 48.863C307.564 51.152 305.779 53.21 301.306 53.21ZM322.854 53H310.947V38.93H322.854V41.765H314.097V44.516H322.539V47.33H314.097V50.165H322.854V53Z" fill="white"/>
<path d="M25.1922 3H31.295H163.477H346V33.7964V64.5927L323.808 87H3V57.4967V25.269L25.1922 3Z" stroke="white" stroke-width="1.5"/>
<path d="M3 57.4967V25.269L25.1922 3H31.295L113.5 3M346 33.7964V64.5927L323.808 87H245" stroke="#F93308" stroke-width="5.5"/>
</svg>
