<svg width="1263" height="755" viewBox="0 0 1263 755" fill="none" xmlns="http://www.w3.org/2000/svg">
<path d="M511.367 1H311.94C308.722 1 305.818 2.92712 304.568 5.89144L296.043 26.1086C294.792 29.0729 291.888 31 288.671 31H11C6.58172 31 3 34.5817 3 39L3 707.899C3 711.502 5.40864 714.661 8.88331 715.614L147.752 753.715C148.442 753.904 149.154 754 149.869 754H289.794C292.742 754 295.452 752.379 296.845 749.78L313.767 718.22C315.16 715.621 317.869 714 320.817 714H520.157" stroke="white" stroke-width="2"/>
<path d="M764.33 1H951.06C954.278 1 957.182 2.92712 958.432 5.89144L966.957 26.1086C968.208 29.0729 971.112 31 974.329 31H1252C1256.42 31 1260 34.5817 1260 39L1260 707.899C1260 711.502 1257.59 714.661 1254.12 715.614L1115.25 753.715C1114.56 753.904 1113.85 754 1113.13 754H973.206C970.258 754 967.548 752.379 966.155 749.78L949.233 718.22C947.84 715.621 945.131 714 942.183 714H751.145" stroke="white" stroke-width="2"/>
<path d="M250 31H11C6.58172 31 3 34.5817 3 39V112" stroke="#F93308" stroke-width="6" stroke-linecap="square"/>
<path d="M1137 747.969L1254.01 717.527C1257.54 716.61 1260 713.427 1260 709.784V604.969" stroke="#F93308" stroke-width="6" stroke-linecap="square"/>
</svg>
