<svg width="494" height="234" viewBox="0 0 494 234" fill="none" xmlns="http://www.w3.org/2000/svg">
<g filter="url(#filter0_d_833_217)">
<path d="M118.507 99V66.6258L133.967 82.0854V99H118.507ZM95.0452 36.5251H157.52V51.9847H133.967V74.9922L118.507 59.5326V51.9847H95.0452V36.5251ZM196.634 83.5404L233.282 83.6313V99.0909H181.174V63.7158L196.634 79.1753V83.5404ZM233.282 75.6287L199.998 75.7197L181.083 56.8044V36.616H233.282V52.0756H198.271L206.364 60.1691H233.282V75.6287ZM274.644 59.6235L274.007 61.0785L262.276 49.3474L262.913 48.529C268.914 39.8898 278.827 34.7063 289.376 34.7063C296.742 34.7063 303.926 37.2526 309.655 41.8904C315.293 46.4374 319.204 52.8031 320.75 59.8054L321.113 61.3513H304.744L304.381 60.6238C303.562 58.6232 302.38 56.8953 300.834 55.3494C297.742 52.2575 293.65 50.5296 289.285 50.5296C284.92 50.5296 280.827 52.2575 277.736 55.3494C276.462 56.6225 275.462 58.0776 274.644 59.6235ZM304.29 72.9915L304.744 72.5368H321.113L320.75 74.0828C319.749 78.6297 317.658 82.9948 314.748 86.7233C311.929 90.3608 308.2 93.4527 304.108 95.5443C303.38 95.9081 302.653 96.2718 301.925 96.5447C297.924 98.1816 293.741 99 289.376 99C280.827 99 272.734 95.6353 266.641 89.5424C260.548 83.4495 257.183 75.3559 257.183 66.8077C257.183 63.1701 257.82 59.5326 259.002 56.0769L259.639 54.1672L273.098 67.6261V68.0808C273.37 71.9002 275.007 75.5378 277.736 78.266C280.464 80.9941 284.101 82.631 287.921 82.9038C288.648 82.9948 289.467 82.9948 290.194 82.9948C291.831 82.9038 293.468 82.5401 295.014 81.9944C295.56 81.8126 296.014 81.6307 296.469 81.3579C298.015 80.5394 299.47 79.5391 300.743 78.266C302.289 76.72 303.471 74.9922 304.29 72.9915ZM344.463 99V61.806L359.922 77.2656V99H344.463ZM383.475 36.5251L398.935 36.616V99.0909H383.475V75.6287H365.288L344.463 54.8038V36.5251H359.922V48.3471L371.653 60.0782H383.475V36.5251ZM34.8036 136.525H50.2632V159.714L34.8036 144.255V136.525ZM34.8036 199V151.348L50.2632 166.808V199H34.8036ZM73.8647 199V163.079L89.3242 178.539V199H73.8647ZM116.333 149.893L131.429 134.797V199.091H116.879L116.242 198.454L99.2366 181.449L89.3242 171.536L73.8647 156.077V136.616H76.32L76.6838 136.98L115.969 176.265V150.257L116.333 149.893ZM172.206 134.797L179.845 150.893L194.122 181.085L193.849 181.631L185.574 199L155.109 134.797H172.206ZM198.942 134.888H216.129L198.578 171.9L196.941 175.265L188.393 157.168L188.666 156.623L198.942 134.888ZM255.099 183.54L291.748 183.631V199.091H239.64V163.716L255.099 179.175V183.54ZM291.748 175.629L258.464 175.72L239.549 156.804V136.616H291.748V152.076H256.736L264.83 160.169H291.748V175.629ZM315.467 199V163.079L330.927 178.539V199H315.467ZM357.935 149.893L373.031 134.797V199.091H358.481L357.844 198.454L340.839 181.449L330.927 171.536L315.467 156.077V136.616H317.922L318.286 136.98L357.572 176.265V150.257L357.935 149.893ZM420.174 199V166.626L435.633 182.085V199H420.174ZM396.711 136.525H459.186V151.985H435.633V174.992L420.174 159.533V151.985H396.711V136.525Z" fill="#E6D8D5"/>
</g>
<defs>
<filter id="filter0_d_833_217" x="0.803711" y="0.706299" width="492.383" height="232.385" filterUnits="userSpaceOnUse" color-interpolation-filters="sRGB">
<feFlood flood-opacity="0" result="BackgroundImageFix"/>
<feColorMatrix in="SourceAlpha" type="matrix" values="0 0 0 0 0 0 0 0 0 0 0 0 0 0 0 0 0 0 127 0" result="hardAlpha"/>
<feOffset/>
<feGaussianBlur stdDeviation="17"/>
<feComposite in2="hardAlpha" operator="out"/>
<feColorMatrix type="matrix" values="0 0 0 0 0 0 0 0 0 0 0 0 0 0 0 0 0 0 1 0"/>
<feBlend mode="normal" in2="BackgroundImageFix" result="effect1_dropShadow_833_217"/>
<feBlend mode="normal" in="SourceGraphic" in2="effect1_dropShadow_833_217" result="shape"/>
</filter>
</defs>
</svg>
